<svg xmlns="http://www.w3.org/2000/svg" viewBox="0 0 64 64">
  <defs>
    <linearGradient id="g" x1="0%" y1="0%" x2="100%" y2="100%">
      <stop offset="0%" stop-color="#C9A96E"/>
      <stop offset="50%" stop-color="#B8935A"/>
      <stop offset="100%" stop-color="#D4B87A"/>
    </linearGradient>
  </defs>
  <rect x="2" y="2" width="60" height="60" rx="16" fill="url(#g)"/>
  <g transform="translate(13,13)" stroke="#1B1B28" stroke-width="2.2" stroke-linecap="round" stroke-linejoin="round" fill="rgba(27,27,40,0.12)">
    <path d="M8 30 C8 30 7 18 10 13 C11.5 10 13 8 14 5 C14.5 3.5 16 3.5 16 5.5 L16 12 C16 12 17.5 10.5 19 10.5 C20.5 10.5 22 12 22 12 L22 5.5 C22 3.5 23.5 3.5 24 5 C25 8 26.5 10 28 13 C31 18 30 30 30 30"/>
  </g>
  <circle cx="28" cy="31" r="1.6" fill="#1B1B28"/>
  <circle cx="36" cy="31" r="1.6" fill="#1B1B28"/>
</svg>
